<?xml version="1.0" encoding="utf-8" standalone="no"?>
<!DOCTYPE svg PUBLIC "-//W3C//DTD SVG 1.1//EN"
  "http://www.w3.org/Graphics/SVG/1.1/DTD/svg11.dtd">
<!-- Created with matplotlib (https://matplotlib.org/) -->
<svg height="5760pt" version="1.1" viewBox="0 0 8640 5760" width="8640pt" xmlns="http://www.w3.org/2000/svg" xmlns:xlink="http://www.w3.org/1999/xlink">
 <metadata>
  <rdf:RDF xmlns:cc="http://creativecommons.org/ns#" xmlns:dc="http://purl.org/dc/elements/1.1/" xmlns:rdf="http://www.w3.org/1999/02/22-rdf-syntax-ns#">
   <cc:Work>
    <dc:type rdf:resource="http://purl.org/dc/dcmitype/StillImage"/>
    <dc:date>2022-08-24T10:25:21.585491</dc:date>
    <dc:format>image/svg+xml</dc:format>
    <dc:creator>
     <cc:Agent>
      <dc:title>Matplotlib v3.3.4, https://matplotlib.org/</dc:title>
     </cc:Agent>
    </dc:creator>
   </cc:Work>
  </rdf:RDF>
 </metadata>
 <defs>
  <style type="text/css">*{stroke-linecap:butt;stroke-linejoin:round;}</style>
 </defs>
 <g id="figure_1">
  <g id="patch_1">
   <path d="M 0 5760 
L 8640 5760 
L 8640 0 
L 0 0 
z
" style="fill:none;"/>
  </g>
  <g id="axes_1">
   <g id="patch_2">
    <path clip-path="url(#pe1472e3192)" d="M 1188 794.742857 
L 7668 794.742857 
L 7668 4936.457143 
L 1188 4936.457143 
z
" style="fill:none;stroke:#000080;stroke-linejoin:miter;stroke-width:12;"/>
   </g>
   <g id="patch_3">
    <path clip-path="url(#pe1472e3192)" d="M 1188 1949.245714 
L 1976.4 1949.245714 
L 1976.4 3776.777143 
L 1188 3776.777143 
z
" style="fill:none;stroke:#000080;stroke-linejoin:miter;stroke-width:12;"/>
   </g>
   <g id="patch_4">
    <path clip-path="url(#pe1472e3192)" d="M 6879.6 1949.245714 
L 7668 1949.245714 
L 7668 3776.777143 
L 6879.6 3776.777143 
z
" style="fill:none;stroke:#000080;stroke-linejoin:miter;stroke-width:12;"/>
   </g>
   <g id="patch_5">
    <path d="M 4428 794.742857 
Q 4428 2865.6 4428 4936.457143 
" style="fill:none;stroke:#000080;stroke-linecap:round;stroke-width:12;"/>
   </g>
   <g id="patch_6">
    <path clip-path="url(#pe1472e3192)" d="M 1188 2451.428571 
L 1452.6 2451.428571 
L 1452.6 3279.771429 
L 1188 3279.771429 
z
" style="fill:none;stroke:#000080;stroke-linejoin:miter;stroke-width:12;"/>
   </g>
   <g id="patch_7">
    <path clip-path="url(#pe1472e3192)" d="M 7403.4 2451.428571 
L 7668 2451.428571 
L 7668 3279.771429 
L 7403.4 3279.771429 
z
" style="fill:none;stroke:#000080;stroke-linejoin:miter;stroke-width:12;"/>
   </g>
   <g id="patch_8">
    <path clip-path="url(#pe1472e3192)" d="M 4428 2446.251429 
C 4543.999836 2446.251429 4655.264235 2490.436639 4737.288506 2569.075781 
C 4819.312777 2647.714923 4865.4 2754.387459 4865.4 2865.6 
C 4865.4 2976.812541 4819.312777 3083.485077 4737.288506 3162.124219 
C 4655.264235 3240.763361 4543.999836 3284.948571 4428 3284.948571 
C 4312.000164 3284.948571 4200.735765 3240.763361 4118.711494 3162.124219 
C 4036.687223 3083.485077 3990.6 2976.812541 3990.6 2865.6 
C 3990.6 2754.387459 4036.687223 2647.714923 4118.711494 2569.075781 
C 4200.735765 2490.436639 4312.000164 2446.251429 4428 2446.251429 
z
" style="fill:none;stroke:#000080;stroke-linejoin:miter;stroke-width:12;"/>
   </g>
   <g id="patch_9">
    <path clip-path="url(#pe1472e3192)" d="M 4428 2828.842286 
C 4438.167887 2828.842286 4447.920692 2832.71531 4455.110474 2839.608371 
C 4462.300256 2846.501432 4466.34 2855.85174 4466.34 2865.6 
C 4466.34 2875.34826 4462.300256 2884.698568 4455.110474 2891.591629 
C 4447.920692 2898.48469 4438.167887 2902.357714 4428 2902.357714 
C 4417.832113 2902.357714 4408.079308 2898.48469 4400.889526 2891.591629 
C 4393.699744 2884.698568 4389.66 2875.34826 4389.66 2865.6 
C 4389.66 2855.85174 4393.699744 2846.501432 4400.889526 2839.608371 
C 4408.079308 2832.71531 4417.832113 2828.842286 4428 2828.842286 
z
" style="fill:#000080;stroke:#000080;stroke-linejoin:miter;stroke-width:12;"/>
   </g>
   <g id="patch_10">
    <path clip-path="url(#pe1472e3192)" d="M 7144.2 2828.842286 
C 7154.367887 2828.842286 7164.120692 2832.71531 7171.310474 2839.608371 
C 7178.500256 2846.501432 7182.54 2855.85174 7182.54 2865.6 
C 7182.54 2875.34826 7178.500256 2884.698568 7171.310474 2891.591629 
C 7164.120692 2898.48469 7154.367887 2902.357714 7144.2 2902.357714 
C 7134.032113 2902.357714 7124.279308 2898.48469 7117.089526 2891.591629 
C 7109.899744 2884.698568 7105.86 2875.34826 7105.86 2865.6 
C 7105.86 2855.85174 7109.899744 2846.501432 7117.089526 2839.608371 
C 7124.279308 2832.71531 7134.032113 2828.842286 7144.2 2828.842286 
z
" style="fill:#000080;stroke:#000080;stroke-linejoin:miter;stroke-width:12;"/>
   </g>
   <g id="patch_11">
    <path clip-path="url(#pe1472e3192)" d="M 1711.8 2828.842286 
C 1721.967887 2828.842286 1731.720692 2832.71531 1738.910474 2839.608371 
C 1746.100256 2846.501432 1750.14 2855.85174 1750.14 2865.6 
C 1750.14 2875.34826 1746.100256 2884.698568 1738.910474 2891.591629 
C 1731.720692 2898.48469 1721.967887 2902.357714 1711.8 2902.357714 
C 1701.632113 2902.357714 1691.879308 2898.48469 1684.689526 2891.591629 
C 1677.499744 2884.698568 1673.46 2875.34826 1673.46 2865.6 
C 1673.46 2855.85174 1677.499744 2846.501432 1684.689526 2839.608371 
C 1691.879308 2832.71531 1701.632113 2828.842286 1711.8 2828.842286 
z
" style="fill:#000080;stroke:#000080;stroke-linejoin:miter;stroke-width:12;"/>
   </g>
   <g id="patch_12">
    <path clip-path="url(#pe1472e3192)" d="M 1992.9553 2544.360357 
C 2041.881413 2583.719953 2081.22703 2632.879998 2108.219026 2688.375636 
C 2135.211022 2743.871274 2149.2 2804.367339 2149.2 2865.6 
C 2149.2 2926.832661 2135.211022 2987.328726 2108.219026 3042.824364 
C 2081.22703 3098.320002 2041.881413 3147.480047 1992.9553 3186.839643 
" style="fill:none;stroke:#000080;stroke-linejoin:miter;stroke-width:12;"/>
   </g>
   <g id="patch_13">
    <path clip-path="url(#pe1472e3192)" d="M 6863.0447 3186.839643 
C 6814.118587 3147.480047 6774.77297 3098.320002 6747.780974 3042.824364 
C 6720.788978 2987.328726 6706.8 2926.832661 6706.8 2865.6 
C 6706.8 2804.367339 6720.788978 2743.871274 6747.780974 2688.375636 
C 6774.77297 2632.879998 6814.118587 2583.719953 6863.0447 2544.360357 
" style="fill:none;stroke:#000080;stroke-linejoin:miter;stroke-width:12;"/>
   </g>
  </g>
 </g>
 <defs>
  <clipPath id="pe1472e3192">
   <rect height="4348.8" width="6696" x="1080" y="691.2"/>
  </clipPath>
 </defs>
</svg>
